<?xml version="1.0" standalone="no"?>
<!DOCTYPE svg PUBLIC "-//W3C//DTD SVG 20010904//EN"
 "http://www.w3.org/TR/2001/REC-SVG-20010904/DTD/svg10.dtd">
<svg version="1.0" xmlns="http://www.w3.org/2000/svg"
 width="320.000000pt" height="320.000000pt" viewBox="0 0 320.000000 320.000000"
 preserveAspectRatio="xMidYMid meet">
<metadata>
Created by potrace 1.14, written by Peter Selinger 2001-2017
</metadata>
<g transform="translate(0.000000,320.000000) scale(0.100000,-0.100000)"
fill="#000000" stroke="none">
<path d="M1538 3106 c-83 -42 -83 -42 -85 -347 -1 -259 -1 -270 21 -310 54
-104 197 -104 252 -1 21 39 22 53 21 299 0 154 -4 268 -11 283 -33 82 -121
116 -198 76z"/>
<path d="M552 2700 c-63 -39 -88 -116 -59 -183 7 -15 95 -111 196 -213 205
-204 226 -218 302 -195 49 15 81 44 98 88 14 34 10 87 -7 119 -18 34 -381 389
-404 396 -44 12 -93 8 -126 -12z"/>
<path d="M2505 2702 c-49 -31 -377 -364 -391 -399 -19 -44 -17 -77 5 -122 33
-64 106 -94 174 -72 39 13 388 354 414 404 19 38 12 109 -14 146 -42 57 -131
77 -188 43z"/>
<path d="M1455 2214 c-207 -48 -377 -205 -453 -416 -23 -64 -26 -89 -26 -198
-1 -111 2 -133 26 -198 71 -196 222 -344 413 -405 106 -33 282 -31 383 5 100
36 172 81 245 154 119 119 178 254 183 419 2 55 -1 120 -7 145 -6 25 -12 53
-14 63 -8 40 -77 165 -117 214 -155 186 -400 270 -633 217z m275 -197 c262
-78 386 -392 250 -632 -166 -292 -594 -292 -760 0 -70 123 -74 290 -10 416 28
53 114 143 168 175 101 60 236 75 352 41z"/>
<path d="M160 1732 c-102 -49 -112 -187 -18 -254 33 -23 36 -23 308 -23 265 0
276 1 310 22 72 45 91 142 40 210 -40 55 -52 57 -342 59 -221 1 -272 -1 -298
-14z"/>
<path d="M2447 1726 c-102 -54 -102 -198 1 -252 39 -21 52 -22 311 -20 257 1
271 2 298 22 34 26 63 73 67 111 3 32 -17 89 -42 116 -33 37 -62 41 -331 42
-251 2 -266 1 -304 -19z"/>
<path d="M895 1086 c-34 -15 -369 -346 -397 -391 -54 -88 20 -215 126 -215 23
0 55 8 71 18 49 31 377 364 391 399 8 18 14 44 14 58 0 36 -34 99 -64 119 -36
23 -105 29 -141 12z"/>
<path d="M2185 1084 c-67 -35 -100 -117 -73 -182 15 -36 358 -386 400 -408 60
-31 144 -6 185 55 26 39 29 87 9 134 -16 39 -364 387 -403 404 -39 17 -83 16
-118 -3z"/>
<path d="M1537 815 c-79 -41 -85 -63 -84 -367 0 -243 1 -258 21 -294 56 -100
193 -102 251 -4 19 33 20 52 21 299 1 250 0 266 -20 304 -36 68 -123 97 -189
62z"/>
</g>
</svg>
